<?xml version="1.0" standalone="no"?>
<!DOCTYPE svg PUBLIC "-//W3C//DTD SVG 20010904//EN"
 "http://www.w3.org/TR/2001/REC-SVG-20010904/DTD/svg10.dtd">
<svg version="1.0" xmlns="http://www.w3.org/2000/svg"
 width="650.000000pt" height="598.000000pt" viewBox="0 0 650.000000 598.000000"
 preserveAspectRatio="xMidYMid meet">

<g transform="translate(0.000000,598.000000) scale(0.100000,-0.100000)"
fill="#000000" stroke="none">
<path d="M1925 5610 l-230 -5 -51 -90 c-28 -49 -125 -218 -215 -375 -91 -157
-302 -521 -468 -810 -167 -289 -327 -565 -356 -615 -29 -49 -95 -164 -147
-255 -52 -91 -136 -236 -186 -324 -51 -87 -92 -160 -92 -161 0 -2 29 -52 63
-112 64 -109 407 -702 502 -868 92 -160 281 -486 355 -615 40 -69 149 -258
243 -420 93 -162 212 -368 264 -457 l95 -163 1521 1 c883 0 1514 4 1502 9 -11
5 -153 25 -315 45 -162 20 -338 42 -390 50 -52 8 -219 30 -370 50 -151 19
-360 45 -465 59 -104 14 -422 55 -705 91 -295 38 -520 71 -527 78 -6 7 -106
228 -221 492 -116 264 -285 651 -377 860 -92 209 -180 409 -195 445 -16 36
-47 108 -70 160 -23 52 -62 141 -86 196 l-44 102 189 388 c103 214 257 531
340 704 84 173 231 478 328 677 l175 361 87 6 c47 4 381 22 741 42 360 19 891
48 1180 64 494 27 526 28 541 12 9 -9 78 -114 154 -232 77 -118 196 -300 265
-405 70 -104 150 -228 178 -275 28 -47 94 -150 146 -230 52 -80 128 -197 169
-260 41 -63 181 -279 311 -479 130 -200 236 -370 236 -377 0 -7 -93 -222 -206
-476 -394 -884 -611 -1373 -618 -1393 -15 -42 15 5 125 195 62 107 143 247
180 310 36 63 116 201 176 305 140 243 479 830 554 960 l58 99 -31 56 c-18 30
-115 199 -216 375 -102 176 -261 453 -355 615 -243 421 -302 525 -462 800 -78
135 -211 364 -295 510 -83 146 -155 268 -158 272 -8 8 -2497 15 -2827 8z"/>
<path d="M2048 4183 c-65 -2 -118 -7 -118 -11 0 -5 16 -23 35 -42 l35 -34 0
-562 c0 -503 2 -562 16 -568 9 -3 61 -6 117 -7 l102 -1 -117 -40 -118 -40 0
-564 0 -564 263 2 262 3 5 519 5 519 115 39 c63 21 121 36 127 33 10 -3 13
-125 13 -560 l0 -555 260 0 260 0 -2 608 -3 607 -110 5 -110 5 113 38 112 39
0 563 0 563 -137 3 c-76 3 -193 3 -260 1 l-123 -4 0 -513 c0 -398 -3 -515 -12
-522 -12 -10 -225 -83 -241 -83 -4 0 -7 249 -7 554 0 305 -3 557 -7 559 -12 7
-345 14 -475 10z"/>
<path d="M3540 4050 l0 -130 215 0 215 0 0 -1085 0 -1085 258 0 259 0 6 398
c3 218 3 683 1 1032 -3 349 -5 640 -5 647 1 6 -50 29 -111 50 l-113 38 330 5
330 5 3 128 3 127 -696 0 -695 0 0 -130z"/>
</g>
</svg>
